<?xml version="1.0" encoding="utf-8"?>
<!-- Generator: Adobe Illustrator 23.0.5, SVG Export Plug-In . SVG Version: 6.00 Build 0)  -->
<svg version="1.1" id="Capa_1" xmlns="http://www.w3.org/2000/svg" xmlns:xlink="http://www.w3.org/1999/xlink" x="0px" y="0px"
	 viewBox="0 0 400 400" style="enable-background:new 0 0 400 400;" xml:space="preserve">
<style type="text/css">
	.st0{fill:#FFFFFF;}
</style>
<path class="st0" d="M293.54,258.19c19.68-26.88,31.46-59.9,31.46-95.69C325,72.9,252.1,0,162.5,0S0,72.9,0,162.5
	S72.9,325,162.5,325c35.79,0,68.81-11.78,95.69-31.46L364.65,400L400,364.65C400,364.65,293.54,258.19,293.54,258.19L293.54,258.19z
	 M162.5,275C100.46,275,50,224.54,50,162.5S100.46,50,162.5,50S275,100.46,275,162.5S224.53,275,162.5,275L162.5,275z"/>
</svg>
