<svg id="Capa_1" data-name="Capa 1" xmlns="http://www.w3.org/2000/svg" viewBox="0 0 400 400"><defs><style>.cls-1{fill:#1438a6;}.cls-2{fill:#bfd5de;}.cls-3{fill:#dde8ed;}.cls-4{fill:#ea964b;}.cls-5{fill:#db8638;}.cls-6{fill:#718799;}.cls-7{fill:#ffceb6;}.cls-8{fill:#d1e4ff;}.cls-9{fill:#ef5e3b;}.cls-10{fill:#c47220;}</style></defs><title>iconos-03</title><path class="cls-1" d="M400,200a199.14,199.14,0,0,1-48.61,130.7q-3.43,4-7,7.73c-2.47,2.58-5,5.09-7.61,7.53q-6.08,5.69-12.61,10.86c-.64.51-1.28,1-1.93,1.5q-6.52,5.07-13.48,9.58-3.75,2.43-7.62,4.71l-2.23,1.29q-3.62,2.07-7.35,4-3.33,1.72-6.74,3.32c-.71.34-1.43.66-2.14,1q-6.47,2.94-13.13,5.4c-2.92,1.08-5.88,2.1-8.87,3l-1,.33q-2.81.89-5.66,1.68-6.7,1.89-13.62,3.29c-2.81.58-5.65,1.09-8.51,1.55l-.14,0c-3.64.58-7.29,1.06-11,1.44-1.23.13-2.46.25-3.7.35-1.05.09-2.12.17-3.18.24-1.49.1-3,.19-4.51.26-3,.14-6,.21-9,.22H200c-2.84,0-5.67-.06-8.47-.18l-1.06-.05c-1.43-.07-2.86-.15-4.29-.26-1.07-.07-2.12-.14-3.19-.23-5.07-.42-10.09-1-15-1.85-2.38-.38-4.73-.79-7.07-1.26a198.87,198.87,0,0,1-29.48-8.25q-8.27-3-16.18-6.73c-1.8-.84-3.59-1.72-5.35-2.62l-1.4-.72q-6.1-3.15-12-6.7c-2.46-1.5-4.9-3-7.3-4.65a198.67,198.67,0,0,1-22.36-17.3,201.12,201.12,0,0,1-24-25.55c-.8-1-1.6-2-2.38-3.08A199.39,199.39,0,0,1,0,200C0,89.54,89.55,0,200,0a199,199,0,0,1,94.22,23.55c.78.41,1.56.84,2.33,1.27a197.29,197.29,0,0,1,18.67,11.69h0q4.54,3.21,8.9,6.67,5.69,4.48,11,9.4a202.76,202.76,0,0,1,14.67,14.94A199.22,199.22,0,0,1,400,200Z"/><path class="cls-2" d="M310.34,172.61l-48.27-48.28-27.59,27.59,55.17,55.17h20.69Z"/><path class="cls-3" d="M275.86,138.13v34.48l-18.27,18.27A55.34,55.34,0,0,1,185.24,196l-1.46-1.1-18.26,12.17H117.24L86.59,194.83l.7-3.47a55.05,55.05,0,0,1,9.48-21.63l37.73-51.89a34.46,34.46,0,0,1,27.89-14.19h64.7a34.44,34.44,0,0,1,24.39,10.1Z"/><path class="cls-4" d="M324.13.2V356.82c-.64.51-1.28,1-1.93,1.5q-6.52,5.07-13.48,9.58-3.75,2.43-7.62,4.71h-4.55V.2Z"/><path class="cls-5" d="M301.1,372.61l-2.23,1.29q-3.62,2.07-7.35,4-3.33,1.72-6.74,3.32c-.71.34-1.43.66-2.14,1q-6.47,2.94-13.13,5.4c-2.92,1.08-5.88,2.1-8.87,3l-1,.33q-2.81.89-5.66,1.68l14.3-19.08.71-.94Z"/><path class="cls-6" d="M255.17,365.71,220.69,379.5l-13.8-69-69-55.17L115.1,301a55.2,55.2,0,0,1-12.7,16.56L66.85,349.2a201.12,201.12,0,0,1-24-25.55L69,283l17.62-88.11,78.93,12.25,63.36,63.36a55.16,55.16,0,0,1,15.4,29.94Z"/><rect class="cls-2" x="157.4" y="155.97" width="13.79" height="48.68" rx="6.9" transform="translate(-78.53 203.57) rotate(-53.13)"/><path class="cls-2" d="M220.69,179.51a6.85,6.85,0,0,1-4.23-1.46l-56.63-44a6.89,6.89,0,0,1-1.21-9.68h0a6.9,6.9,0,0,1,9.68-1.2l52.33,40.7L245.48,144a6.9,6.9,0,0,1,9.69,1.07h0a6.9,6.9,0,0,1-1.08,9.7L225,178a6.91,6.91,0,0,1-4.31,1.52Z"/><path class="cls-7" d="M275.86,172.61l20-10a13.81,13.81,0,0,0,7.63-12.34v-26H269L255.17,145Z"/><path class="cls-2" d="M210.94,138.13,200,127.19,184.19,143l-9.76-9.75,20.69-20.69a6.91,6.91,0,0,1,9.76,0l15.81,15.81a6.9,6.9,0,0,1-9.75,9.76Z"/><path class="cls-2" d="M193.1,117.44h13.8v41.38H193.1Z"/><path class="cls-7" d="M313.79,214H296.55a20.69,20.69,0,0,1-20.69-20.69V179.51h13.79v-8.22a5.58,5.58,0,0,1,5.58-5.58h0a5.57,5.57,0,0,1,2.5.59l12.61,6.31H331v24.14A17.24,17.24,0,0,1,313.79,214Z"/><path class="cls-8" d="M282.64,382.18q-6.47,2.94-13.13,5.4c-2.92,1.08-5.88,2.1-8.87,3l-1,.33q-2.81.89-5.66,1.68-6.7,1.89-13.62,3.29c-2.81.58-5.65,1.09-8.51,1.55l-.14,0c-3.64.58-7.29,1.06-11,1.44V379.5l34.48-13.79,13.08,7.84Z"/><path class="cls-9" d="M324.14.2l69,41.38L324.14,83Z"/><path class="cls-7" d="M200,117.44a20.69,20.69,0,0,1-20.69-20.69v-6.9L193.1,76.06h27.59V96.75A20.69,20.69,0,0,1,200,117.44Z"/><path class="cls-10" d="M220.69,76.06l2.61-2.61a14.63,14.63,0,0,0-10.34-25H200a20.69,20.69,0,0,0-20.69,20.69V89.85L193.1,76.06Z"/></svg>