<svg id="Capa_1" data-name="Capa 1" xmlns="http://www.w3.org/2000/svg" viewBox="0 0 400 400"><defs><style>.cls-1{fill:#1438a6;}.cls-2{fill:#2ba1cf;}.cls-3{fill:#66baed;}.cls-4{fill:#f2f0ec;}.cls-5{fill:#d8d5d0;}.cls-6{fill:#cc7a3b;}.cls-7{fill:#a35418;}.cls-8{fill:#eab599;}.cls-9{fill:#f6caae;}.cls-10{fill:#3d4159;}.cls-11{fill:#fff;}.cls-12{fill:#bfd5de;}.cls-13{fill:#dde8ed;}.cls-14{fill:#d3a489;}.cls-15{fill:#f74f4f;}.cls-16{fill:#bf8e75;}.cls-17{fill:#2a2f4f;}</style></defs><title>iconos-01</title><path class="cls-1" d="M400,200A199.91,199.91,0,0,1,260.64,390.63a196.51,196.51,0,0,1-28.83,6.85h-.13q-7.27,1.17-14.69,1.79l-3.18.25c-1.49.09-3,.18-4.51.25q-4.62.23-9.3.22c-3.2,0-6.38-.07-9.53-.23-1.43-.06-2.86-.15-4.29-.25-1.07-.08-2.13-.15-3.19-.24q-7.61-.63-15.05-1.84c-2.36-.39-4.72-.8-7.06-1.27a197.66,197.66,0,0,1-29.48-8.25q-8.27-3-16.18-6.73-2.7-1.26-5.36-2.62-6.83-3.45-13.35-7.41a200.59,200.59,0,0,1-79.35-90A199.2,199.2,0,0,1,0,200C0,89.54,89.54,0,200,0S400,89.54,400,200Z"/><path class="cls-2" d="M160.88,259.54V396.17a197.66,197.66,0,0,1-29.48-8.25q-8.27-3-16.18-6.73-2.7-1.26-5.36-2.62-6.83-3.45-13.35-7.41a200.59,200.59,0,0,1-79.35-90V259.54a54.22,54.22,0,0,1,40.16-52.36c.84-.23,1.69-.44,2.56-.62a52.51,52.51,0,0,1,7.05-1c1.46-.12,2.94-.18,4.43-.18h35.31a54.36,54.36,0,0,1,11.49,1.22l.64.14c.62.14,1.25.29,1.86.46h0a54.3,54.3,0,0,1,40.17,52.37Z"/><path class="cls-3" d="M160.88,259.54V396.17a197.66,197.66,0,0,1-29.48-8.25q-8.27-3-16.18-6.73-2.7-1.26-5.36-2.62-6.83-3.45-13.35-7.41a201.29,201.29,0,0,1-56.09-50.59v-61a54.22,54.22,0,0,1,40.16-52.36c.85-.23,1.7-.44,2.56-.62a53,53,0,0,1,7-1c1.47-.12,2.94-.18,4.44-.18h12a54.36,54.36,0,0,1,11.49,1.22l.64.14c.62.14,1.25.29,1.86.46h0a54.3,54.3,0,0,1,40.17,52.37Z"/><path class="cls-4" d="M120.84,206.56l-.12.61L104.5,282.6a15.79,15.79,0,0,1-15.35,12.51h-.27A15.77,15.77,0,0,1,73.54,282.6L57.32,207.18l-.13-.62Z"/><path class="cls-5" d="M89,227.53,64.61,241.09l-7.42-34.53,15.16-8.93"/><path class="cls-5" d="M89,227.53l24.4,13.56,7.42-34.53-15.16-8.93"/><path class="cls-6" d="M16.15,192.27V110.52A72.83,72.83,0,0,1,89,37.65a73.86,73.86,0,0,1,11.36.88,72.88,72.88,0,0,1,61.51,72v81.75"/><path class="cls-7" d="M46.13,113.71c0,28.92,16.93,62.37,26.23,78.56H16.15V110.52A72.82,72.82,0,0,1,88.49,37.66C66.09,38.21,46.13,74.16,46.13,113.71Z"/><path class="cls-8" d="M108.36,184.46v23.73a19.34,19.34,0,0,1-38.68,0V184.46Z"/><path class="cls-9" d="M108.36,206.69v1.5a19.35,19.35,0,0,1-13.62,18.48,19.33,19.33,0,0,1-13.46-16c1.29.08,2.59.12,3.89.12a66.63,66.63,0,0,0,23.19-4.14Z"/><path class="cls-9" d="M36,145.56a18,18,0,0,1-15.11,17.75,17,17,0,0,1-2.88.24,18,18,0,1,1,18-18Z"/><path class="cls-8" d="M36,145.56a18,18,0,0,1-15.11,17.75,67.38,67.38,0,0,1,0-35.5A18,18,0,0,1,36,145.56Z"/><path class="cls-8" d="M24.41,145.56A6.43,6.43,0,1,1,18,139.13,6.43,6.43,0,0,1,24.41,145.56Z"/><path class="cls-8" d="M135.2,122.6v61.82a66.6,66.6,0,0,1-35.44,17.63l-.33.06a66.08,66.08,0,0,1-10.41.81A66.92,66.92,0,0,1,22.11,136V110.52a67.73,67.73,0,0,1,.68-9.61c15.92,11.45,38.75,10.32,53.29-3.42A37.84,37.84,0,0,0,86.14,81.77,44.14,44.14,0,0,0,100,109.34,49.39,49.39,0,0,0,135.2,122.6Z"/><path class="cls-9" d="M135.2,122.6v61.82a66.6,66.6,0,0,1-35.44,17.63l-.33.06A66.93,66.93,0,0,1,42.94,136V110.52c0-.68,0-1.35,0-2a41.91,41.91,0,0,0,33.1-11A37.75,37.75,0,0,0,86.14,81.77,44.14,44.14,0,0,0,100,109.34,49.39,49.39,0,0,0,135.2,122.6Z"/><path class="cls-8" d="M125,130.35a11.12,11.12,0,0,0-22.23,0"/><path class="cls-8" d="M75.32,130.35a11.12,11.12,0,0,0-22.23,0"/><path class="cls-10" d="M71.8,135.08a7.59,7.59,0,1,1-7.59-7.59A7.59,7.59,0,0,1,71.8,135.08Z"/><path class="cls-10" d="M121.44,135.08a7.59,7.59,0,1,1-7.59-7.59A7.59,7.59,0,0,1,121.44,135.08Z"/><path class="cls-8" d="M96.62,154.2H81.44a3.28,3.28,0,1,1,0-6.55H96.62a3.28,3.28,0,0,1,0,6.55Z"/><path class="cls-8" d="M89,174.91a33.8,33.8,0,0,1-16.32-4.21,3,3,0,0,1,2.87-5.22,27.76,27.76,0,0,0,26.89,0,3,3,0,1,1,2.87,5.22A33.79,33.79,0,0,1,89,174.91Z"/><path class="cls-11" d="M70.25,133.74A3.25,3.25,0,1,1,67,130.49,3.26,3.26,0,0,1,70.25,133.74Z"/><path class="cls-11" d="M120.26,133.74a3.25,3.25,0,1,1-3.25-3.25A3.26,3.26,0,0,1,120.26,133.74Z"/><path class="cls-8" d="M134.57,153.57a8.34,8.34,0,1,1-8.34-8.33A8.33,8.33,0,0,1,134.57,153.57Z"/><path class="cls-8" d="M60.15,153.57a8.34,8.34,0,1,1-8.34-8.33A8.33,8.33,0,0,1,60.15,153.57Z"/><path class="cls-12" d="M382.05,257.89v25a200.81,200.81,0,0,1-97.28,98.27,199.55,199.55,0,0,1-53,16.28h-.13V257.89a56.7,56.7,0,0,1,52.08-56.51c1.53-.13,3.07-.19,4.63-.19h36.93a56.63,56.63,0,0,1,56.73,56.7Z"/><path class="cls-13" d="M382.05,257.89v25a200.81,200.81,0,0,1-97.28,98.27,197.56,197.56,0,0,1-24.13,9.43V257.89a56.72,56.72,0,0,1,56.72-56.7h8A56.71,56.71,0,0,1,382.05,257.89Z"/><path class="cls-14" d="M251.35,138.64a18.82,18.82,0,0,1-15.8,18.58,18.62,18.62,0,0,1-3,.24,18.82,18.82,0,1,1,0-37.63,18.62,18.62,0,0,1,3,.24A18.81,18.81,0,0,1,251.35,138.64Z"/><path class="cls-15" d="M322.09,221.65l-15.23,24.42-15.22-24.42"/><path class="cls-15" d="M327.35,315.05,306.86,340.9l-20.48-25.85,20.49-75.33Z"/><path class="cls-16" d="M251.35,138.64a18.82,18.82,0,0,1-15.8,18.58,70.53,70.53,0,0,1,0-37.15A18.81,18.81,0,0,1,251.35,138.64Z"/><path class="cls-16" d="M239.26,138.64a6.73,6.73,0,1,1-6.72-6.72A6.72,6.72,0,0,1,239.26,138.64Z"/><path class="cls-12" d="M306.86,224.4l-25.53,14.2-7.77-36.13,15.86-9.35"/><path class="cls-12" d="M306.86,224.4l25.53,14.2,7.77-36.13-15.87-9.35"/><path class="cls-14" d="M362.37,138.64a18.82,18.82,0,0,0,15.8,18.58,18.62,18.62,0,0,0,3,.24,18.82,18.82,0,1,0,0-37.63,18.62,18.62,0,0,0-3,.24A18.81,18.81,0,0,0,362.37,138.64Z"/><path class="cls-16" d="M362.37,138.64a18.82,18.82,0,0,0,15.8,18.58,70.53,70.53,0,0,0,0-37.15A18.81,18.81,0,0,0,362.37,138.64Z"/><path class="cls-16" d="M387.91,138.64a6.73,6.73,0,1,1-6.73-6.72A6.73,6.73,0,0,1,387.91,138.64Z"/><path class="cls-16" d="M376.87,128.64a70,70,0,1,1-140,0c0-18.29,6.35-45.76,17.84-58.23,12.8-13.89,31.8-11.78,52.17-11.78a70,70,0,0,1,70,70Z"/><path class="cls-16" d="M327.1,179.34v24.83a20.23,20.23,0,0,1-14.26,19.33,20,20,0,0,1-6,.9,20.22,20.22,0,0,1-20.23-20.23V179.34Z"/><path class="cls-14" d="M327.1,202.6v1.57a20.23,20.23,0,0,1-14.26,19.33,20.25,20.25,0,0,1-14.08-16.69q2,.12,4.08.12a69.81,69.81,0,0,0,24.26-4.33Z"/><path class="cls-14" d="M376.87,128.64a70,70,0,0,1-58.77,69.11,70,70,0,0,1,0-138.22,70,70,0,0,1,58.43,62.13Q376.88,125.11,376.87,128.64Z"/><path class="cls-16" d="M306.86,163.13a35.39,35.39,0,0,1-17.07-4.41,3.11,3.11,0,0,1,3-5.46,29.08,29.08,0,0,0,28.14,0,3.11,3.11,0,0,1,3,5.46A35.36,35.36,0,0,1,306.86,163.13Z"/><path class="cls-10" d="M292,124.57a7.94,7.94,0,1,1-7.94-7.94A7.93,7.93,0,0,1,292,124.57Z"/><path class="cls-10" d="M337.66,124.57a7.95,7.95,0,1,1-8-7.94A7.94,7.94,0,0,1,337.66,124.57Z"/><path class="cls-11" d="M290.33,123.17a3.4,3.4,0,1,1-3.4-3.41A3.4,3.4,0,0,1,290.33,123.17Z"/><path class="cls-11" d="M336.43,123.17a3.41,3.41,0,1,1-3.41-3.41A3.41,3.41,0,0,1,336.43,123.17Z"/><path class="cls-16" d="M314.8,144.56H298.92a3.43,3.43,0,1,1,0-6.85H314.8a3.43,3.43,0,1,1,0,6.85Z"/><path class="cls-12" d="M329.91,256h30.52v9.34H329.91Z"/><path class="cls-17" d="M302.76,38.63a42.45,42.45,0,0,1,39.32,40.22l.2,4h12.2l6.57,43.7L377,121.66l-2.14-42.81a42.43,42.43,0,0,0-42.54-40.33Z"/><path class="cls-10" d="M373.48,21.73a43.25,43.25,0,0,1-61.16,61.16Z"/><path class="cls-10" d="M312.32,82.89H259.25l-6.58,43.7-15.91-4.93,2.13-42.81a42.44,42.44,0,0,1,42.55-40.33l76.65.29,10.14,18.24"/><path class="cls-17" d="M311,38.63a42.45,42.45,0,0,0-39.32,40.22l-.2,4h-12.2l-6.57,43.7-15.91-4.93,2.13-42.81a42.44,42.44,0,0,1,42.54-40.33Z"/><path class="cls-10" d="M284.77,366.2v15a200.49,200.49,0,0,1-169.55,0v-15a64,64,0,0,1,47.37-61.77c1-.27,2-.52,3-.74a61.62,61.62,0,0,1,8.31-1.22c1.74-.14,3.47-.22,5.24-.22h41.65a63.73,63.73,0,0,1,13.56,1.44l.75.16,2.2.55.06,0a64,64,0,0,1,47.38,61.78Z"/><path class="cls-3" d="M237.54,303.69l-.15.73L217,399.28l-3.18.25c-1.49.09-3,.18-4.51.25q-4.62.23-9.3.22c-3.2,0-6.38-.07-9.53-.23-1.43-.06-2.86-.15-4.29-.25-1.07-.08-2.13-.15-3.19-.24l-20.4-94.85-.15-.74Z"/><path class="cls-10" d="M217.16,325.33,200,352.86l-17.16-27.53"/><path class="cls-10" d="M213.81,399.53c-1.49.09-3,.18-4.51.25q-4.62.23-9.3.22c-3.2,0-6.38-.07-9.53-.23-1.43-.06-2.86-.15-4.29-.25L200,345.7Z"/><path class="cls-2" d="M200,328.43l-28.79,16-8.76-40.73,17.89-10.54"/><path class="cls-2" d="M200,328.43l28.79,16,8.76-40.73-17.89-10.54"/><path class="cls-17" d="M238.63,358.67h9.13l-15.95,38.81a198.59,198.59,0,0,1-22.51,2.3l28-95.38.21-.71,19.7,6.43Z"/><path class="cls-17" d="M190.47,399.77a198.71,198.71,0,0,1-22.53-2.33L152,358.67h9.13l-18.62-48.55,19.71-6.43.21.71Z"/><path class="cls-8" d="M222.81,277.62v28a22.8,22.8,0,0,1-16.07,21.79,22.47,22.47,0,0,1-6.75,1,22.81,22.81,0,0,1-22.81-22.81v-28Z"/><path class="cls-9" d="M222.81,303.85v1.77a22.83,22.83,0,0,1-16.07,21.8,22.81,22.81,0,0,1-15.88-18.83c1.52.1,3,.14,4.59.14a79.09,79.09,0,0,0,27.36-4.88Z"/><path class="cls-9" d="M137.4,231.73a21.26,21.26,0,1,1-17.82-20.95A21.22,21.22,0,0,1,137.4,231.73Z"/><path class="cls-8" d="M137.4,231.73a21.22,21.22,0,0,1-17.82,20.94,79.46,79.46,0,0,1,0-41.89A21.23,21.23,0,0,1,137.4,231.73Z"/><path class="cls-8" d="M123.77,231.73a7.59,7.59,0,1,1-7.59-7.59A7.59,7.59,0,0,1,123.77,231.73Z"/><path class="cls-9" d="M262.58,231.73a21.26,21.26,0,1,0,17.82-20.95A21.22,21.22,0,0,0,262.58,231.73Z"/><path class="cls-8" d="M262.58,231.73a21.22,21.22,0,0,0,17.82,20.94,79.19,79.19,0,0,0,0-41.89A21.23,21.23,0,0,0,262.58,231.73Z"/><path class="cls-8" d="M278.94,190.39v30.06a79,79,0,0,1-66.28,77.93l-.38.06a77.71,77.71,0,0,1-12.29,1,79,79,0,0,1-78.94-78.95V190.39a78.91,78.91,0,0,1,78.94-79h0a78.92,78.92,0,0,1,78.94,79Z"/><path class="cls-8" d="M291.38,231.73a7.58,7.58,0,1,1-7.58-7.59A7.58,7.58,0,0,1,291.38,231.73Z"/><path class="cls-9" d="M278.94,190.39v30.06a79,79,0,0,1-66.28,77.93l-.39.06a79,79,0,0,1-66.64-78V190.39a79,79,0,0,1,66.66-78A79,79,0,0,1,278.94,190.39Z"/><path class="cls-10" d="M183.18,215.85a9,9,0,1,1-9-8.95A9,9,0,0,1,183.18,215.85Z"/><path class="cls-10" d="M234.72,215.85a9,9,0,1,1-9-8.95A9,9,0,0,1,234.72,215.85Z"/><path class="cls-11" d="M181.35,214.27a3.84,3.84,0,1,1-3.84-3.84A3.83,3.83,0,0,1,181.35,214.27Z"/><path class="cls-11" d="M233.33,214.27a3.84,3.84,0,1,1-3.83-3.84A3.84,3.84,0,0,1,233.33,214.27Z"/><path class="cls-8" d="M209,234.89H191a3.87,3.87,0,1,1,0-7.73H209a3.87,3.87,0,0,1,0,7.73Z"/><path class="cls-8" d="M200,259.33a39.78,39.78,0,0,1-19.24-5,3.51,3.51,0,1,1,3.38-6.15,32.78,32.78,0,0,0,31.73,0,3.51,3.51,0,1,1,3.38,6.15A39.84,39.84,0,0,1,200,259.33Z"/><path class="cls-17" d="M278.94,163.1v30.8H264.25V169.78L158.18,150.07l-22.44-4.17v48H121V163.1A63.56,63.56,0,0,1,184.6,99.54h30.79c.83,0,1.67,0,2.51.06A63.53,63.53,0,0,1,278.94,163.1Z"/><path class="cls-10" d="M278.94,163.1v30.8H264.25V169.78L158.18,150.07A63.57,63.57,0,0,1,217.9,99.6,63.53,63.53,0,0,1,278.94,163.1Z"/></svg>