<svg id="Capa_1" data-name="Capa 1" xmlns="http://www.w3.org/2000/svg" viewBox="0 0 400 400"><defs><style>.cls-1{fill:#1438a6;}.cls-2{fill:#4398d1;}.cls-3{fill:#398cc4;}.cls-4{fill:#d4d4d4;}.cls-5{fill:#e66712;}.cls-6{fill:#ebebeb;}.cls-7{fill:#f77219;}.cls-8{fill:#97d3e6;}.cls-9{fill:#8ac9de;}.cls-10{fill:#7dbdd1;}.cls-11{fill:#f5a338;}.cls-12{fill:#f9b44d;}</style></defs><title>iconos-02</title><path class="cls-1" d="M400.24,200.3A199.14,199.14,0,0,1,351.63,331c-2.28,2.65-4.62,5.22-7,7.74s-5,5.08-7.62,7.52q-7,6.53-14.53,12.37-6.52,5.06-13.48,9.57-4.83,3.14-9.85,6-3.63,2.07-7.35,4-3.33,1.72-6.75,3.32-7.47,3.5-15.27,6.39-4.38,1.62-8.86,3l-1,.32a191.13,191.13,0,0,1-19.28,5q-4.23.87-8.52,1.56h-.13q-7.27,1.17-14.69,1.79c-1.06.1-2.12.17-3.18.24-1.5.11-3,.19-4.51.26q-4.49.21-9,.22h-.27c-2.83,0-5.66-.05-8.47-.18l-1.06-.05c-1.43-.07-2.86-.14-4.29-.25-1.06-.07-2.12-.14-3.18-.24-5.07-.42-10.1-1-15.05-1.84-2.37-.38-4.73-.8-7.06-1.27a196.6,196.6,0,0,1-29.49-8.25q-8.26-3-16.18-6.72c-1.79-.85-3.58-1.72-5.35-2.63-.47-.23-.94-.47-1.4-.72q-6.1-3.13-11.95-6.69-3.7-2.25-7.31-4.65a201.39,201.39,0,0,1-48.78-45.94A199.31,199.31,0,0,1,.24,200.3C.24,89.84,89.79.3,200.24.3A199.2,199.2,0,0,1,315.46,36.81h0A200.11,200.11,0,0,1,400.24,200.3Z"/><path class="cls-2" d="M330,205.35l-3.75,29-11.54,89.4L309,368.2q-4.83,3.14-9.85,6-3.63,2.07-7.35,4-3.33,1.72-6.75,3.32-7.47,3.5-15.27,6.39-4.38,1.62-8.86,3l-1,.32-.69.33a44.77,44.77,0,0,1-9.59,3.48,43.94,43.94,0,0,1-9,1.16q-4.23.87-8.52,1.56h-.13q-7.27,1.17-14.69,1.79c-1.06.1-2.12.17-3.18.24-1.5.11-3,.19-4.51.26q-4.49.21-9,.22h-.27c-2.83,0-5.66-.05-8.47-.18l-1.06-.05c-1.43-.07-2.86-.14-4.29-.25-1.06-.07-2.12-.14-3.18-.24-5.07-.42-10.1-1-15.05-1.84-2.37-.38-4.73-.8-7.06-1.27a196.6,196.6,0,0,1-29.49-8.25q-8.26-3-16.18-6.72c-1.79-.85-3.58-1.72-5.35-2.63-.47-.23-.94-.47-1.4-.72q-6.1-3.13-11.95-6.69-3.7-2.25-7.31-4.65L72.37,234.39l-3.75-29Z"/><rect class="cls-2" x="46.84" y="176.31" width="304.92" height="29.04"/><polygon class="cls-3" points="68.62 205.35 72.37 234.39 326.24 234.39 329.98 205.35 68.62 205.35"/><polygon class="cls-4" points="184.78 176.31 83.14 176.31 83.14 110.97 112.18 74.67 155.74 74.67 184.78 110.97 184.78 176.31"/><rect class="cls-5" x="112.18" y="23.85" width="43.56" height="50.82"/><rect class="cls-6" x="83.14" y="110.97" width="101.64" height="65.34"/><rect class="cls-5" x="300.64" y="48.11" width="14.52" height="66.35" transform="translate(-3.89 146.07) rotate(-26.53)"/><rect class="cls-7" x="315.47" y="23.85" width="29.04" height="29.04"/><path class="cls-7" d="M279.16,81.93H213.82A58.08,58.08,0,0,1,271.9,23.85h43.56v29Z"/><rect class="cls-4" x="235.6" y="81.93" width="43.56" height="29.04"/><polygon class="cls-6" points="235.6 110.97 279.16 110.97 315.46 147.27 315.46 176.31 213.82 176.31 213.82 132.75 235.6 110.97"/><path class="cls-8" d="M235.6,234.39V176.31H119.44v167a21.78,21.78,0,0,0,21.78,21.78h72.6a21.78,21.78,0,0,0,21.78-21.78v-72.6l29.48,14.74a15.74,15.74,0,0,0,21.12-7h0l.18-.37a16.22,16.22,0,0,0-7.09-21.8l-.1-.05Z"/><path class="cls-9" d="M279.2,256.17l-43.6-21.78V176.31h-5.5C203.75,263,157.5,315.91,119.75,346.49a21.72,21.72,0,0,0,21.47,18.58h72.6a21.78,21.78,0,0,0,21.78-21.78v-72.6l29.48,14.74a15.74,15.74,0,0,0,21.12-7h0l.18-.37a16.22,16.22,0,0,0-7.09-21.8Z"/><rect class="cls-10" x="141.22" y="292.47" width="14.52" height="72.6"/><rect class="cls-10" x="170.26" y="292.47" width="14.52" height="72.6"/><rect class="cls-10" x="199.3" y="292.47" width="14.52" height="72.6"/><path class="cls-11" d="M351.63,331c-2.28,2.65-4.62,5.22-7,7.74s-5,5.08-7.62,7.52l-14.53,12.37q-6.52,5.06-13.48,9.57-4.83,3.14-9.85,6-3.63,2.07-7.35,4-3.33,1.72-6.75,3.32-7.47,3.5-15.27,6.39-4.38,1.62-8.86,3l-1,.32-.69.33a44.77,44.77,0,0,1-9.59,3.48,43.94,43.94,0,0,1-9,1.16q-4.23.87-8.52,1.56h-.13q-7.27,1.17-14.69,1.79c-1.06.1-2.12.17-3.18.24-1.5.11-3,.19-4.51.26q-4.49.21-9,.22h-.27c-2.83,0-5.66-.05-8.47-.18V359.93a36.43,36.43,0,0,1,10.64-25.66,36.12,36.12,0,0,1,25.67-10.63h11.37a44.3,44.3,0,0,1,16.22,3.08c1.18.48,2.35,1,3.5,1.57l.88.43.88.4c.59.27,1.19.52,1.79.75.8.32,1.6.61,2.41.88a44.16,44.16,0,0,0,27.53,0c.8-.27,1.61-.56,2.41-.88.6-.23,1.2-.48,1.79-.75l.88-.4.88-.43c1.15-.57,2.32-1.09,3.51-1.57a44.08,44.08,0,0,1,6.08-1.9,44.72,44.72,0,0,1,6.49-1c1.22-.11,2.43-.15,3.65-.15h11.37A36.1,36.1,0,0,1,351.63,331Z"/><path class="cls-12" d="M351.63,331c-2.28,2.65-4.62,5.22-7,7.74s-5,5.08-7.62,7.52l-14.53,12.37q-6.52,5.06-13.48,9.57-4.83,3.14-9.85,6-3.63,2.07-7.35,4-3.33,1.72-6.75,3.32-7.47,3.5-15.27,6.39a43.25,43.25,0,0,0-9.89,3.36l-.69.33a44.77,44.77,0,0,1-9.59,3.48,43.94,43.94,0,0,1-9,1.16l-1.13,0H228.08a36.3,36.3,0,1,1,0-72.6h11.37a44.3,44.3,0,0,1,16.22,3.08c1.18.47,2.35,1,3.5,1.57l.88.43.88.4c.59.26,1.19.51,1.79.75.8.31,1.6.61,2.41.88a44.16,44.16,0,0,0,27.53,0c.8-.27,1.61-.57,2.41-.88.6-.24,1.2-.49,1.79-.75l.88-.4.88-.43c1.15-.58,2.32-1.1,3.51-1.57a44.08,44.08,0,0,1,6.08-1.9,44.72,44.72,0,0,1,6.49-1c1.22-.11,2.43-.15,3.65-.15h11.37A36.1,36.1,0,0,1,351.63,331Z"/><polygon class="cls-11" points="336.98 346.26 336.98 345.42 322.45 345.42 322.45 358.63 336.98 346.26"/><rect class="cls-11" x="249.85" y="345.42" width="14.52" height="14.52"/><rect class="cls-11" x="220.81" y="352.68" width="14.52" height="14.52"/><rect class="cls-11" x="293.42" y="352.68" width="14.52" height="14.52"/></svg>